<?xml version="1.0" encoding="UTF-8"?>
<svg width="24px" height="24px" viewBox="0 0 24 24" version="1.1" xmlns="http://www.w3.org/2000/svg">
    <g stroke="none" stroke-width="1" fill="none" fill-rule="evenodd">
        <!-- Arrow Right Icon -->
        <path d="M12,4 L10.59,5.41 L16.17,11 L4,11 L4,13 L16.17,13 L10.59,18.59 L12,20 L20,12 L12,4 Z" fill="#000000"/>
        
        <!-- Arrow Left Icon -->
        <path d="M20,11 L7.83,11 L13.41,5.41 L12,4 L4,12 L12,20 L13.41,18.59 L7.83,13 L20,13 L20,11 Z" fill="#000000"/>
        
        <!-- Plus Icon -->
        <path d="M19,13 L13,13 L13,19 L11,19 L11,13 L5,13 L5,11 L11,11 L11,5 L13,5 L13,11 L19,11 L19,13 Z" fill="#000000"/>
    </g>
</svg> 