<?xml version="1.0" encoding="UTF-8"?>
<svg width="24px" height="24px" viewBox="0 0 24 24" version="1.1" xmlns="http://www.w3.org/2000/svg">
    <g stroke="none" stroke-width="1" fill="none" fill-rule="evenodd">
        <!-- Fast Delivery Icon -->
        <path d="M18.92,6.01 C18.72,5.42 18.16,5 17.5,5 L6.5,5 C5.84,5 5.28,5.42 5.08,6.01 L3,12 L3,20 C3,20.55 3.45,21 4,21 L5,21 C5.55,21 6,20.55 6,20 L6,19 L18,19 L18,20 C18,20.55 18.45,21 19,21 L20,21 C20.55,21 21,20.55 21,20 L21,12 L18.92,6.01 Z M6.5,16 C5.67,16 5,15.33 5,14.5 C5,13.67 5.67,13 6.5,13 C7.33,13 8,13.67 8,14.5 C8,15.33 7.33,16 6.5,16 Z M17.5,16 C16.67,16 16,15.33 16,14.5 C16,13.67 16.67,13 17.5,13 C18.33,13 19,13.67 19,14.5 C19,15.33 18.33,16 17.5,16 Z M5,11 L6.5,6.5 L17.5,6.5 L19,11 L5,11 Z" fill="#000000"/>
        
        <!-- Secure Delivery Icon -->
        <path d="M12,1 L3,5 L3,11 C3,16.55 6.84,21.74 12,23 C17.16,21.74 21,16.55 21,11 L21,5 L12,1 Z M12,11.99 L12,21.99 C7.58,20.84 4,16.22 4,11 L4,6.3 L12,3.19 L12,11.99 Z M16,10 L16,8 L8,8 L8,10 L16,10 Z M16,12 L8,12 L8,14 L16,14 L16,12 Z" fill="#000000"/>
        
        <!-- Global Coverage Icon -->
        <path d="M12,2 C6.48,2 2,6.48 2,12 C2,17.52 6.48,22 12,22 C17.52,22 22,17.52 22,12 C22,6.48 17.52,2 12,2 Z M12,20 C7.59,20 4,16.41 4,12 C4,7.59 7.59,4 12,4 C16.41,4 20,7.59 20,12 C20,16.41 16.41,20 12,20 Z M12,6 C9.79,6 8,7.79 8,10 C8,12.21 9.79,14 12,14 C14.21,14 16,12.21 16,10 C16,7.79 14.21,6 12,6 Z M12,12 C10.9,12 10,11.1 10,10 C10,8.9 10.9,8 12,8 C13.1,8 14,8.9 14,10 C14,11.1 13.1,12 12,12 Z M12,16 C9.33,16 5,17.34 5,20 L5,22 L19,22 L19,20 C19,17.34 14.67,16 12,16 Z M17,20 L7,20 C7.62,19.19 9.27,18 12,18 C14.73,18 16.38,19.19 17,20 Z" fill="#000000"/>
    </g>
</svg> 