<?xml version="1.0" encoding="UTF-8"?>
<svg width="24px" height="24px" viewBox="0 0 24 24" version="1.1" xmlns="http://www.w3.org/2000/svg">
    <g stroke="none" stroke-width="1" fill="none" fill-rule="evenodd">
        <!-- Check Icon -->
        <path d="M9,16.17 L4.83,12 L3.41,13.41 L9,19 L21,7 L19.59,5.59 L9,16.17 Z" fill="#000000"/>
        
        <!-- Error Icon -->
        <path d="M12,2 C6.48,2 2,6.48 2,12 C2,17.52 6.48,22 12,22 C17.52,22 22,17.52 22,12 C22,6.48 17.52,2 12,2 Z M13,17 L11,17 L11,15 L13,15 L13,17 Z M13,13 L11,13 L11,7 L13,7 L13,13 Z" fill="#000000"/>
        
        <!-- Success Icon -->
        <path d="M12,2 C6.48,2 2,6.48 2,12 C2,17.52 6.48,22 12,22 C17.52,22 22,17.52 22,12 C22,6.48 17.52,2 12,2 Z M10,17 L5,12 L6.41,10.59 L10,14.17 L17.59,6.58 L19,8 L10,17 Z" fill="#000000"/>
    </g>
</svg> 