<?xml version="1.0" encoding="UTF-8"?>
<svg width="24px" height="24px" viewBox="0 0 24 24" version="1.1" xmlns="http://www.w3.org/2000/svg">
    <g stroke="none" stroke-width="1" fill="none" fill-rule="evenodd">
        <!-- Menu Icon -->
        <path d="M3,18 L21,18 L21,16 L3,16 L3,18 Z M3,13 L21,13 L21,11 L3,11 L3,13 Z M3,6 L3,8 L21,8 L21,6 L3,6 Z" fill="#000000"/>
        
        <!-- Close Icon -->
        <path d="M19,6.41 L17.59,5 L12,10.59 L6.41,5 L5,6.41 L10.59,12 L5,17.59 L6.41,19 L12,13.41 L17.59,19 L19,17.59 L13.41,12 L19,6.41 Z" fill="#000000"/>
        
        <!-- Search Icon -->
        <path d="M15.5,14 L14.71,14 L14.43,13.73 C15.41,12.59 16,11.11 16,9.5 C16,5.91 13.09,3 9.5,3 C5.91,3 3,5.91 3,9.5 C3,13.09 5.91,16 9.5,16 C11.11,16 12.59,15.41 13.73,14.43 L14,14.71 L14,15.5 L19,20.49 L20.49,19 L15.5,14 Z M9.5,14 C7.01,14 5,11.99 5,9.5 C5,7.01 7.01,5 9.5,5 C11.99,5 14,7.01 14,9.5 C14,11.99 11.99,14 9.5,14 Z" fill="#000000"/>
    </g>
</svg> 