<?xml version="1.0" encoding="UTF-8"?>
<svg width="24px" height="24px" viewBox="0 0 24 24" version="1.1" xmlns="http://www.w3.org/2000/svg">
    <g stroke="none" stroke-width="1" fill="none" fill-rule="evenodd">
        <!-- Facebook Icon -->
        <path d="M24,12 C24,5.372583 18.627417,0 12,0 C5.372583,0 0,5.372583 0,12 C0,17.989562 4.38819982,22.953993 10.125,23.854248 L10.125,15.46875 L7.078125,15.46875 L7.078125,12 L10.125,12 L10.125,9.35625 C10.125,6.34875 11.9165625,4.6875 14.6578125,4.6875 C15.9703125,4.6875 17.34375,4.921875 17.34375,4.921875 L17.34375,7.875 L15.830625,7.875 C14.34,7.875 13.875,8.80007812 13.875,9.75 L13.875,12 L17.203125,12 L16.6710938,15.46875 L13.875,15.46875 L13.875,23.854248 C19.6118002,22.953993 24,17.989562 24,12 Z" fill="#000000"/>
        
        <!-- Twitter Icon -->
        <path d="M23.643,4.937 C22.808,5.307 21.911,5.557 20.968,5.68 C21.949,5.094 22.707,4.179 23.016,3.092 C22.096,3.644 21.064,4.053 19.944,4.276 C19.314,3.497 18.48,2.911 17.524,2.606 C16.568,2.301 15.528,2.296 14.568,2.592 C13.608,2.888 12.78,3.468 12.188,4.257 C11.596,5.046 11.272,5.999 11.256,6.987 C11.24,7.975 11.532,8.942 12.096,9.752 C10.544,9.695 9.008,9.331 7.568,8.684 C6.128,8.037 4.821,7.118 3.712,5.972 C3.427,6.511 3.267,7.113 3.248,7.727 C3.229,8.341 3.352,8.949 3.604,9.504 C3.856,10.059 4.229,10.544 4.692,10.92 C3.988,10.9 3.297,10.711 2.688,10.372 C2.688,10.391 2.688,10.41 2.688,10.429 C2.688,12.183 3.554,13.779 4.871,14.822 C4.151,14.805 3.445,14.561 2.844,14.123 C2.844,14.142 2.844,14.161 2.844,14.18 C2.844,15.625 3.717,16.881 4.963,17.198 C4.303,17.38 3.604,17.38 2.944,17.198 C3.251,18.361 4.075,19.309 5.169,19.82 C6.263,20.331 7.527,20.365 8.65,19.916 C9.773,19.467 10.672,18.567 11.168,17.444 C11.664,16.321 11.716,15.057 11.316,13.894 C11.316,13.913 11.316,13.932 11.316,13.951 C11.316,15.607 10.616,17.183 9.316,18.317 C8.016,19.451 6.216,20.045 4.316,19.916 C3.316,19.916 2.316,19.716 1.416,19.316 C3.516,20.716 6.116,21.416 8.816,21.416 C16.316,21.416 20.316,13.951 20.316,7.672 C20.316,7.491 20.316,7.31 20.316,7.129 C21.157,6.493 21.884,5.731 22.468,4.884 L23.643,4.937 Z" fill="#000000"/>
        
        <!-- Instagram Icon -->
        <path d="M12,2.163 C15.204,2.163 15.584,2.175 16.85,2.233 C18.021,2.286 18.655,2.492 19.108,2.685 C19.702,2.932 20.108,3.225 20.525,3.642 C20.942,4.059 21.235,4.465 21.482,5.059 C21.675,5.512 21.881,6.146 21.934,7.317 C21.992,8.583 22.004,8.963 22.004,12.167 C22.004,15.371 21.992,15.751 21.934,17.017 C21.881,18.188 21.675,18.822 21.482,19.275 C21.235,19.869 20.942,20.275 20.525,20.692 C20.108,21.109 19.702,21.402 19.108,21.649 C18.655,21.842 18.021,22.048 16.85,22.101 C15.584,22.159 15.204,22.171 12,22.171 C8.796,22.171 8.416,22.159 7.15,22.101 C5.979,22.048 5.345,21.842 4.892,21.649 C4.298,21.402 3.892,21.109 3.475,20.692 C3.058,20.275 2.765,19.869 2.518,19.275 C2.325,18.822 2.119,18.188 2.066,17.017 C2.008,15.751 1.996,15.371 1.996,12.167 C1.996,8.963 2.008,8.583 2.066,7.317 C2.119,6.146 2.325,5.512 2.518,5.059 C2.765,4.465 3.058,4.059 3.475,3.642 C3.892,3.225 4.298,2.932 4.892,2.685 C5.345,2.492 5.979,2.286 7.15,2.233 C8.416,2.175 8.796,2.163 12,2.163 Z M12,0 C8.741,0 8.333,0.014 7.053,0.072 C5.775,0.13 4.905,0.344 4.14,0.655 C3.354,0.976 2.672,1.428 1.99,2.11 C1.308,2.792 0.856,3.474 0.535,4.26 C0.224,5.025 0.01,5.895 -0.048,7.173 C-0.106,8.453 -0.12,8.861 -0.12,12.12 C-0.12,15.379 -0.106,15.787 -0.048,17.067 C0.01,18.345 0.224,19.215 0.535,19.98 C0.856,20.766 1.308,21.448 1.99,22.13 C2.672,22.812 3.354,23.264 4.14,23.585 C4.905,23.896 5.775,24.11 7.053,24.168 C8.333,24.226 8.741,24.24 12,24.24 C15.259,24.24 15.667,24.226 16.947,24.168 C18.225,24.11 19.095,23.896 19.86,23.585 C20.646,23.264 21.328,22.812 22.01,22.13 C22.692,21.448 23.144,20.766 23.465,19.98 C23.776,19.215 23.99,18.345 24.048,17.067 C24.106,15.787 24.12,15.379 24.12,12.12 C24.12,8.861 24.106,8.453 24.048,7.173 C23.99,5.895 23.776,5.025 23.465,4.26 C23.144,3.474 22.692,2.792 22.01,2.11 C21.328,1.428 20.646,0.976 19.86,0.655 C19.095,0.344 18.225,0.13 16.947,0.072 C15.667,0.014 15.259,0 12,0 Z M12,5.838 C8.597,5.838 5.838,8.597 5.838,12 C5.838,15.403 8.597,18.162 12,18.162 C15.403,18.162 18.162,15.403 18.162,12 C18.162,8.597 15.403,5.838 12,5.838 Z M12,16 C9.791,16 8,14.209 8,12 C8,9.791 9.791,8 12,8 C14.209,8 16,9.791 16,12 C16,14.209 14.209,16 12,16 Z M18.406,5.594 C17.61,5.594 16.965,6.239 16.965,7.035 C16.965,7.831 17.61,8.476 18.406,8.476 C19.202,8.476 19.847,7.831 19.847,7.035 C19.847,6.239 19.202,5.594 18.406,5.594 Z" fill="#000000"/>
    </g>
</svg> 