<?xml version="1.0" encoding="UTF-8"?>
<svg width="24px" height="24px" viewBox="0 0 24 24" version="1.1" xmlns="http://www.w3.org/2000/svg">
    <g stroke="none" stroke-width="1" fill="none" fill-rule="evenodd">
        <!-- Pending Icon -->
        <path d="M12,2 C6.48,2 2,6.48 2,12 C2,17.52 6.48,22 12,22 C17.52,22 22,17.52 22,12 C22,6.48 17.52,2 12,2 Z M12,20 C7.59,20 4,16.41 4,12 C4,7.59 7.59,4 12,4 C16.41,4 20,7.59 20,12 C20,16.41 16.41,20 12,20 Z M12.5,7 L11,7 L11,13 L16.25,16.15 L17,14.92 L12.5,12.25 L12.5,7 Z" fill="#000000"/>
        
        <!-- In Transit Icon -->
        <path d="M18.92,6.01 C18.72,5.42 18.16,5 17.5,5 L6.5,5 C5.84,5 5.28,5.42 5.08,6.01 L3,12 L3,20 C3,20.55 3.45,21 4,21 L5,21 C5.55,21 6,20.55 6,20 L6,19 L18,19 L18,20 C18,20.55 18.45,21 19,21 L20,21 C20.55,21 21,20.55 21,20 L21,12 L18.92,6.01 Z M6.5,16 C5.67,16 5,15.33 5,14.5 C5,13.67 5.67,13 6.5,13 C7.33,13 8,13.67 8,14.5 C8,15.33 7.33,16 6.5,16 Z M17.5,16 C16.67,16 16,15.33 16,14.5 C16,13.67 16.67,13 17.5,13 C18.33,13 19,13.67 19,14.5 C19,15.33 18.33,16 17.5,16 Z M5,11 L6.5,6.5 L17.5,6.5 L19,11 L5,11 Z" fill="#000000"/>
        
        <!-- Delivered Icon -->
        <path d="M12,2 C6.48,2 2,6.48 2,12 C2,17.52 6.48,22 12,22 C17.52,22 22,17.52 22,12 C22,6.48 17.52,2 12,2 Z M10,17 L5,12 L6.41,10.59 L10,14.17 L17.59,6.58 L19,8 L10,17 Z" fill="#000000"/>
    </g>
</svg> 